# Blender v2.92.0 OBJ File: ''
# www.blender.org
mtllib sphere.mtl
o Sphere
v 0.000000 0.707107 -0.707107
v 0.000000 0.382683 -0.923880
v 0.000000 -0.382684 -0.923880
v 0.000000 -0.923880 -0.382683
v 0.146447 0.923880 -0.353553
v 0.270598 0.707107 -0.653281
v 0.353553 0.382683 -0.853553
v 0.382683 -0.000000 -0.923880
v 0.353553 -0.382684 -0.853553
v 0.270598 -0.707107 -0.653281
v 0.146447 -0.923880 -0.353553
v 0.270598 0.923880 -0.270598
v 0.500000 0.707107 -0.500000
v 0.653281 0.382683 -0.653281
v 0.707107 -0.000000 -0.707107
v 0.653281 -0.382684 -0.653281
v 0.500000 -0.707107 -0.500000
v 0.270598 -0.923880 -0.270598
v 0.353553 0.923880 -0.146447
v 0.653281 0.707107 -0.270598
v 0.853553 0.382683 -0.353553
v 0.923879 -0.000000 -0.382683
v 0.853553 -0.382684 -0.353553
v 0.653281 -0.707107 -0.270598
v 0.353553 -0.923880 -0.146447
v 0.382683 0.923880 -0.000000
v 0.707107 0.707107 -0.000000
v 0.923879 0.382683 -0.000000
v 1.000000 -0.000000 -0.000000
v 0.923879 -0.382684 -0.000000
v 0.707107 -0.707107 -0.000000
v 0.382683 -0.923880 -0.000000
v 0.353553 0.923880 0.146446
v 0.653281 0.707107 0.270598
v 0.853553 0.382683 0.353553
v 0.923879 -0.000000 0.382683
v 0.853553 -0.382684 0.353553
v 0.653281 -0.707107 0.270598
v 0.353553 -0.923880 0.146446
v 0.270598 0.923880 0.270598
v 0.500000 0.707107 0.500000
v 0.653281 0.382683 0.653281
v 0.707106 -0.000000 0.707107
v 0.653281 -0.382684 0.653281
v 0.500000 -0.707107 0.500000
v 0.270598 -0.923880 0.270598
v 0.146446 0.923880 0.353553
v 0.270598 0.707107 0.653281
v 0.353553 0.382683 0.853553
v 0.382683 -0.000000 0.923879
v 0.353553 -0.382684 0.853553
v 0.270598 -0.707107 0.653281
v 0.146446 -0.923880 0.353553
v -0.000000 0.923880 0.382683
v -0.000000 0.707107 0.707106
v -0.000000 0.382683 0.923879
v -0.000000 -0.000000 1.000000
v -0.000000 -0.382684 0.923879
v -0.000000 -0.707107 0.707106
v -0.000000 -0.923880 0.382683
v -0.146447 0.923880 0.353553
v -0.270598 0.707107 0.653281
v -0.353554 0.382683 0.853553
v -0.382684 -0.000000 0.923879
v -0.353554 -0.382684 0.853553
v -0.270598 -0.707107 0.653281
v -0.146447 -0.923880 0.353553
v -0.270598 0.923880 0.270598
v -0.500000 0.707107 0.499999
v -0.653282 0.382683 0.653281
v -0.707107 -0.000000 0.707106
v -0.653282 -0.382684 0.653281
v -0.500000 -0.707107 0.499999
v -0.270598 -0.923880 0.270598
v -0.353553 0.923880 0.146446
v -0.653281 0.707107 0.270597
v -0.853553 0.382683 0.353553
v -0.923879 -0.000000 0.382683
v -0.853553 -0.382684 0.353553
v -0.653281 -0.707107 0.270597
v -0.353553 -0.923880 0.146446
v -0.382683 0.923880 -0.000000
v -0.707106 0.707107 -0.000000
v -0.923879 0.382683 -0.000001
v -1.000000 -0.000000 -0.000001
v -0.923879 -0.382684 -0.000001
v -0.707106 -0.707107 -0.000000
v -0.382683 -0.923880 -0.000000
v -0.353553 0.923880 -0.146447
v -0.653281 0.707107 -0.270598
v -0.853553 0.382683 -0.353554
v -0.923879 -0.000000 -0.382684
v -0.853553 -0.382684 -0.353554
v -0.653281 -0.707107 -0.270598
v -0.353553 -0.923880 -0.146447
v -0.270598 0.923880 -0.270598
v -0.499999 0.707107 -0.500000
v -0.653281 0.382683 -0.653282
v -0.707106 -0.000000 -0.707107
v -0.653281 -0.382684 -0.653282
v -0.499999 -0.707107 -0.500000
v -0.270598 -0.923880 -0.270598
v -0.146446 0.923880 -0.353553
v -0.270598 0.707107 -0.653281
v -0.353553 0.382683 -0.853553
v -0.382683 -0.000000 -0.923880
v -0.353553 -0.382684 -0.853553
v -0.270598 -0.707107 -0.653281
v -0.146446 -0.923880 -0.353553
v -0.000000 1.000000 -0.000000
v 0.000000 0.923880 -0.382683
v 0.000001 -0.000000 -1.000000
v 0.000000 -0.707107 -0.707106
v 0.000000 -1.000000 -0.000000
vt 0.750000 0.250000
vt 0.687500 0.125000
vt 0.750000 0.125000
vt 0.750000 0.500000
vt 0.687500 0.375000
vt 0.750000 0.375000
vt 0.750000 0.750000
vt 0.687500 0.625000
vt 0.750000 0.625000
vt 0.750000 0.875000
vt 0.718750 1.000000
vt 0.687500 0.875000
vt 0.718750 0.000000
vt 0.687500 0.250000
vt 0.687500 0.500000
vt 0.687500 0.750000
vt 0.656250 1.000000
vt 0.625000 0.875000
vt 0.656250 0.000000
vt 0.625000 0.125000
vt 0.625000 0.250000
vt 0.625000 0.500000
vt 0.625000 0.750000
vt 0.625000 0.375000
vt 0.625000 0.625000
vt 0.562500 0.250000
vt 0.562500 0.625000
vt 0.562500 0.500000
vt 0.562500 0.875000
vt 0.562500 0.750000
vt 0.562500 0.125000
vt 0.562500 0.375000
vt 0.593750 1.000000
vt 0.593750 0.000000
vt 0.500000 0.250000
vt 0.500000 0.125000
vt 0.500000 0.375000
vt 0.500000 0.625000
vt 0.531250 1.000000
vt 0.500000 0.875000
vt 0.531250 0.000000
vt 0.500000 0.500000
vt 0.500000 0.750000
vt 0.437500 0.375000
vt 0.437500 0.750000
vt 0.437500 0.625000
vt 0.468750 1.000000
vt 0.437500 0.875000
vt 0.468750 0.000000
vt 0.437500 0.125000
vt 0.437500 0.250000
vt 0.437500 0.500000
vt 0.406250 0.000000
vt 0.375000 0.125000
vt 0.375000 0.250000
vt 0.375000 0.500000
vt 0.375000 0.875000
vt 0.375000 0.750000
vt 0.375000 0.375000
vt 0.375000 0.625000
vt 0.406250 1.000000
vt 0.312500 0.625000
vt 0.312500 0.500000
vt 0.312500 0.875000
vt 0.312500 0.750000
vt 0.312500 0.250000
vt 0.312500 0.125000
vt 0.312500 0.375000
vt 0.343750 1.000000
vt 0.343750 0.000000
vt 0.250000 0.250000
vt 0.250000 0.125000
vt 0.250000 0.375000
vt 0.250000 0.625000
vt 0.281250 1.000000
vt 0.250000 0.875000
vt 0.281250 0.000000
vt 0.250000 0.500000
vt 0.250000 0.750000
vt 0.187500 0.625000
vt 0.218750 1.000000
vt 0.187500 0.875000
vt 0.218750 0.000000
vt 0.187500 0.125000
vt 0.187500 0.250000
vt 0.187500 0.500000
vt 0.187500 0.750000
vt 0.187500 0.375000
vt 0.156250 0.000000
vt 0.125000 0.125000
vt 0.125000 0.375000
vt 0.125000 0.250000
vt 0.125000 0.625000
vt 0.125000 0.500000
vt 0.125000 0.750000
vt 0.156250 1.000000
vt 0.125000 0.875000
vt 0.062500 0.875000
vt 0.062500 0.750000
vt 0.062500 0.125000
vt 0.062500 0.375000
vt 0.062500 0.625000
vt 0.093750 1.000000
vt 0.093750 0.000000
vt 0.062500 0.250000
vt 0.062500 0.500000
vt 0.000000 0.250000
vt 0.000000 0.125000
vt 0.000000 0.375000
vt 0.000000 0.625000
vt 0.031250 1.000000
vt 0.000000 0.875000
vt 0.031250 0.000000
vt 0.000000 0.500000
vt 0.000000 0.750000
vt 1.000000 0.875000
vt 0.968750 1.000000
vt 0.937500 0.875000
vt 0.968750 0.000000
vt 1.000000 0.125000
vt 0.937500 0.125000
vt 1.000000 0.250000
vt 0.937500 0.375000
vt 0.937500 0.250000
vt 1.000000 0.500000
vt 0.937500 0.625000
vt 0.937500 0.500000
vt 1.000000 0.750000
vt 0.937500 0.750000
vt 1.000000 0.375000
vt 1.000000 0.625000
vt 0.875000 0.250000
vt 0.875000 0.625000
vt 0.875000 0.500000
vt 0.875000 0.875000
vt 0.875000 0.750000
vt 0.875000 0.125000
vt 0.875000 0.375000
vt 0.906250 1.000000
vt 0.906250 0.000000
vt 0.812500 0.125000
vt 0.812500 0.375000
vt 0.812500 0.625000
vt 0.843750 1.000000
vt 0.812500 0.875000
vt 0.843750 0.000000
vt 0.812500 0.250000
vt 0.812500 0.500000
vt 0.812500 0.750000
vt 0.781250 1.000000
vt 0.781250 0.000000
vn 0.0468 -0.7068 -0.7058
vn 0.1394 -0.9079 -0.3953
vn -0.0225 -0.9079 -0.4185
vn 0.0661 0.0000 -0.9978
vn 0.3229 -0.4091 -0.8535
vn -0.0611 -0.3824 -0.9220
vn -0.0162 0.6872 -0.7263
vn 0.3351 0.3567 -0.8721
vn -0.0396 0.3459 -0.9374
vn 0.0225 0.9079 -0.4185
vn 0.0000 1.0000 0.0000
vn 0.1809 0.9079 -0.3781
vn -0.0000 -1.0000 -0.0000
vn 0.2802 -0.7349 -0.6175
vn 0.0662 -0.0000 -0.9978
vn 0.4188 -0.0397 -0.9072
vn 0.2788 0.7076 -0.6493
vn -0.0161 0.6872 -0.7263
vn 0.2702 0.9241 -0.2703
vn 0.3129 -0.8968 -0.3129
vn 0.4951 -0.6786 -0.5426
vn 0.2802 -0.7350 -0.6175
vn 0.7266 0.0284 -0.6864
vn 0.5020 0.7272 -0.4681
vn 0.3129 -0.8967 -0.3129
vn 0.6497 -0.3831 -0.6566
vn 0.6176 0.4193 -0.6654
vn 0.6342 -0.7068 -0.3134
vn 0.7266 0.0284 -0.6865
vn 0.8536 0.3567 -0.3797
vn 0.9376 -0.0398 -0.3454
vn 0.3781 0.9079 -0.1809
vn 0.6700 0.7068 -0.2269
vn 0.6342 -0.7068 -0.3133
vn 0.3953 -0.9079 -0.1394
vn 0.8515 -0.3831 -0.3580
vn 0.2703 0.9241 -0.2702
vn 0.6860 -0.7272 -0.0240
vn 0.3822 -0.9241 -0.0000
vn 0.9376 -0.0397 -0.3454
vn 0.9237 -0.3831 -0.0049
vn 0.6700 0.7068 -0.2268
vn 0.9121 0.4091 0.0283
vn 0.4185 0.9079 -0.0225
vn 0.6342 -0.7069 -0.3133
vn 1.0000 0.0000 0.0000
vn 0.6700 0.7069 -0.2269
vn 0.6777 0.7350 0.0226
vn 0.8552 -0.3831 0.3490
vn 0.6648 0.6872 0.2929
vn 0.8509 0.3459 0.3954
vn 0.3953 0.9079 0.1394
vn 0.3953 -0.9079 0.1394
vn 0.6563 -0.7076 0.2619
vn 0.9239 0.0000 0.3827
vn 0.6778 0.7349 0.0226
vn 0.6649 0.6872 0.2929
vn 0.3129 -0.8968 0.3129
vn 0.8552 -0.3831 0.3489
vn 0.5426 -0.6786 0.4951
vn 0.8509 0.3458 0.3954
vn 0.6864 0.0284 0.7266
vn 0.3118 0.9079 0.2801
vn 0.4660 0.7068 0.5322
vn 0.3129 -0.8967 0.3129
vn 0.6566 -0.3831 0.6497
vn 0.6654 0.4193 0.6176
vn 0.6865 0.0284 0.7266
vn 0.3797 0.3567 0.8536
vn 0.3454 -0.0397 0.9376
vn 0.4660 0.7069 0.5322
vn 0.1809 0.9079 0.3781
vn 0.2269 0.7068 0.6700
vn 0.3133 -0.7068 0.6342
vn 0.1394 -0.9079 0.3953
vn 0.3580 -0.3831 0.8515
vn 0.3134 -0.7068 0.6342
vn 0.0468 -0.7068 0.7058
vn -0.0225 -0.9079 0.4185
vn 0.0049 -0.3831 0.9237
vn 0.2268 0.7068 0.6700
vn -0.0049 0.3832 0.9237
vn 0.0225 0.9079 0.4185
vn 0.3133 -0.7069 0.6342
vn -0.0000 0.0000 1.0000
vn 0.2269 0.7069 0.6700
vn -0.0468 0.7068 0.7058
vn -0.3160 0.4193 0.8511
vn -0.0049 0.3831 0.9237
vn -0.1694 0.8968 0.4088
vn -0.1462 -0.9241 0.3531
vn -0.2704 -0.7076 0.6528
vn 0.0468 -0.7069 0.7058
vn -0.4086 0.0284 0.9123
vn -0.0468 0.7069 0.7058
vn -0.1694 0.8967 0.4089
vn -0.3118 0.6786 0.6651
vn -0.3221 -0.3458 0.8813
vn -0.1463 -0.9241 0.3531
vn -0.2801 -0.9079 0.3118
vn -0.6249 -0.4091 0.6649
vn -0.4952 -0.7349 0.4633
vn -0.6531 0.3832 0.6531
vn -0.7341 -0.0398 0.6779
vn -0.1693 0.8967 0.4089
vn -0.4655 0.7528 0.4655
vn -0.6249 -0.4091 0.6650
vn -0.1693 0.8968 0.4088
vn -0.2702 0.9241 0.2703
vn -0.3781 0.9079 0.1809
vn -0.6772 0.6872 0.2630
vn -0.4089 -0.8967 0.1693
vn -0.7341 -0.0397 0.6779
vn -0.8509 -0.3458 0.3954
vn -0.8813 0.3459 0.3221
vn -0.2703 0.9241 0.2702
vn -0.4088 -0.8968 0.1693
vn -0.6947 -0.6593 0.2877
vn -0.4952 -0.7350 0.4633
vn -0.9239 0.0000 0.3827
vn -0.4089 -0.8967 0.1694
vn -0.6860 -0.7272 -0.0240
vn -0.3822 -0.9241 0.0000
vn -0.9220 -0.3824 0.0612
vn -0.9072 0.4193 0.0338
vn -0.4185 0.9079 0.0225
vn -0.4088 -0.8968 0.1694
vn -0.6947 -0.6593 0.2878
vn -0.9220 -0.3824 0.0611
vn -0.8813 0.3458 0.3221
vn -0.9992 0.0284 -0.0284
vn -0.7058 0.7068 -0.0468
vn -0.3953 0.9079 -0.1394
vn -0.3953 -0.9079 -0.1394
vn -0.8535 -0.4091 -0.3229
vn -0.6175 -0.7349 -0.2802
vn -0.8752 0.3824 -0.2963
vn -0.8965 0.0000 -0.4430
vn -0.7058 0.7069 -0.0468
vn -0.6342 0.7068 -0.3133
vn -0.9072 0.4193 0.0337
vn -0.5061 -0.7076 -0.4932
vn -0.6175 -0.7350 -0.2802
vn -0.6774 0.3567 -0.6433
vn -0.6779 -0.0397 -0.7341
vn -0.6342 0.7069 -0.3133
vn -0.3118 0.9079 -0.2801
vn -0.4660 0.7068 -0.5322
vn -0.3118 -0.9079 -0.2801
vn -0.6566 -0.3831 -0.6497
vn -0.6342 0.7068 -0.3134
vn -0.6775 0.3567 -0.6433
vn -0.5061 -0.7076 -0.4931
vn -0.1809 -0.9079 -0.3781
vn -0.3954 -0.3458 -0.8509
vn -0.3430 0.4434 -0.8281
vn -0.1693 0.8968 -0.4088
vn -0.2630 -0.6872 -0.6772
vn -0.3561 0.0284 -0.9340
vn -0.4660 0.7069 -0.5322
vn -0.1693 0.8967 -0.4089
vn -0.2704 0.7076 -0.6528
vn -0.0612 -0.3824 -0.9220
vn -0.1694 0.8968 -0.4088
vn 0.0468 -0.7069 -0.7058
vn -0.0397 0.3458 -0.9375
vn -0.1694 0.8967 -0.4089
vn -0.0611 -0.3825 -0.9220
vn -0.0396 0.3458 -0.9375
vn 0.2789 0.7076 -0.6493
vn 0.3351 0.3566 -0.8721
vn 0.2702 0.9241 -0.2702
vn 0.6497 -0.3832 -0.6566
vn 0.8515 -0.3832 -0.3580
vn 0.8536 0.3566 -0.3797
vn 0.9237 -0.3832 -0.0049
vn 0.8552 -0.3832 0.3489
vn 0.6566 -0.3832 0.6497
vn 0.3580 -0.3832 0.8515
vn 0.3797 0.3566 0.8536
vn 0.0049 -0.3832 0.9237
vn -0.3221 -0.3459 0.8813
vn -0.2702 0.9241 0.2702
vn -0.3118 0.6786 0.6650
vn -0.8509 -0.3459 0.3954
vn -0.8509 -0.3459 0.3953
vn -0.3562 0.0284 -0.9340
vn -0.6566 -0.3832 -0.6497
vn -0.3954 -0.3459 -0.8509
vn -0.6774 0.3566 -0.6433
usemtl (null)
s off
f 113/1/1 11/2/2 4/3/3
f 112/4/4 9/5/5 3/6/6
f 1/7/7 7/8/8 2/9/9
f 111/10/10 110/11/11 5/12/12
f 114/13/13 4/3/3 11/2/2
f 113/1/1 9/5/5 10/14/14
f 112/4/15 7/8/8 8/15/16
f 111/10/10 6/16/17 1/7/18
f 5/12/12 110/17/11 12/18/19
f 114/19/13 11/2/2 18/20/20
f 9/5/5 17/21/21 10/14/22
f 7/8/8 15/22/23 8/15/16
f 5/12/12 13/23/24 6/16/17
f 10/14/14 18/20/25 11/2/2
f 8/15/16 16/24/26 9/5/5
f 6/16/17 14/25/27 7/8/8
f 16/24/26 24/26/28 17/21/21
f 15/22/29 21/27/30 22/28/31
f 13/23/24 19/29/32 20/30/33
f 18/20/25 24/26/34 25/31/35
f 15/22/29 23/32/36 16/24/26
f 13/23/24 21/27/30 14/25/27
f 12/18/37 110/33/11 19/29/32
f 114/34/13 18/20/20 25/31/35
f 25/31/35 31/35/38 32/36/39
f 22/28/40 30/37/41 23/32/36
f 20/30/42 28/38/43 21/27/30
f 19/29/32 110/39/11 26/40/44
f 114/41/13 25/31/35 32/36/39
f 23/32/36 31/35/38 24/26/45
f 21/27/30 29/42/46 22/28/40
f 20/30/47 26/40/44 27/43/48
f 29/42/46 37/44/49 30/37/41
f 28/38/43 34/45/50 35/46/51
f 26/40/44 110/47/11 33/48/52
f 114/49/13 32/36/39 39/50/53
f 30/37/41 38/51/54 31/35/38
f 28/38/43 36/52/55 29/42/46
f 27/43/56 33/48/52 34/45/57
f 31/35/38 39/50/53 32/36/39
f 114/53/13 39/50/53 46/54/58
f 37/44/59 45/55/60 38/51/54
f 35/46/61 43/56/62 36/52/55
f 34/45/50 40/57/63 41/58/64
f 38/51/54 46/54/65 39/50/53
f 36/52/55 44/59/66 37/44/49
f 34/45/57 42/60/67 35/46/51
f 33/48/52 110/61/11 40/57/63
f 43/56/68 49/62/69 50/63/70
f 41/58/71 47/64/72 48/65/73
f 46/54/65 52/66/74 53/67/75
f 43/56/68 51/68/76 44/59/66
f 41/58/64 49/62/69 42/60/67
f 40/57/63 110/69/11 47/64/72
f 114/70/13 46/54/58 53/67/75
f 44/59/66 52/66/77 45/55/60
f 53/67/75 59/71/78 60/72/79
f 50/63/70 58/73/80 51/68/76
f 48/65/81 56/74/82 49/62/69
f 47/64/72 110/75/11 54/76/83
f 114/77/13 53/67/75 60/72/79
f 51/68/76 59/71/78 52/66/84
f 49/62/69 57/78/85 50/63/70
f 48/65/86 54/76/83 55/79/87
f 55/79/87 63/80/88 56/74/89
f 54/76/83 110/81/11 61/82/90
f 114/83/13 60/72/79 67/84/91
f 58/73/80 66/85/92 59/71/93
f 56/74/89 64/86/94 57/78/85
f 55/79/95 61/82/96 62/87/97
f 60/72/79 66/85/92 67/84/91
f 57/78/85 65/88/98 58/73/80
f 114/89/13 67/84/99 74/90/100
f 66/85/92 72/91/101 73/92/102
f 64/86/94 70/93/103 71/94/104
f 61/82/105 69/95/106 62/87/97
f 66/85/92 74/90/100 67/84/99
f 64/86/94 72/91/107 65/88/98
f 62/87/97 70/93/103 63/80/88
f 61/82/108 110/96/11 68/97/109
f 69/95/106 75/98/110 76/99/111
f 73/92/102 81/100/112 74/90/100
f 71/94/113 79/101/114 72/91/101
f 70/93/103 76/99/111 77/102/115
f 68/97/116 110/103/11 75/98/110
f 114/104/13 74/90/100 81/100/117
f 72/91/101 80/105/118 73/92/119
f 70/93/103 78/106/120 71/94/113
f 81/100/121 87/107/122 88/108/123
f 78/106/120 86/109/124 79/101/114
f 76/99/111 84/110/125 77/102/115
f 75/98/110 110/111/11 82/112/126
f 114/113/13 81/100/127 88/108/123
f 80/105/128 86/109/129 87/107/122
f 77/102/130 85/114/131 78/106/120
f 76/99/111 82/112/126 83/115/132
f 82/116/126 110/117/11 89/118/133
f 114/119/13 88/120/123 95/121/134
f 87/122/122 93/123/135 94/124/136
f 85/125/131 91/126/137 92/127/138
f 83/128/139 89/118/133 90/129/140
f 87/122/122 95/121/134 88/120/123
f 85/125/131 93/123/135 86/130/129
f 83/128/132 91/126/137 84/131/141
f 93/123/135 101/132/142 94/124/143
f 92/127/138 98/133/144 99/134/145
f 90/129/146 96/135/147 97/136/148
f 94/124/136 102/137/149 95/121/134
f 92/127/138 100/138/150 93/123/135
f 90/129/151 98/133/152 91/126/137
f 89/118/133 110/139/11 96/135/147
f 114/140/13 95/121/134 102/137/149
f 101/132/153 109/141/154 102/137/149
f 99/134/145 107/142/155 100/138/150
f 97/136/148 105/143/156 98/133/152
f 96/135/147 110/144/11 103/145/157
f 114/146/13 102/137/149 109/141/154
f 100/138/150 108/147/158 101/132/153
f 98/133/144 106/148/159 99/134/145
f 97/136/160 103/145/161 104/149/162
f 106/148/159 3/6/163 107/142/155
f 105/143/156 1/7/18 2/9/9
f 103/145/164 110/150/11 111/10/10
f 114/151/13 109/141/154 4/3/3
f 108/147/158 3/6/6 113/1/165
f 106/148/159 2/9/166 112/4/15
f 103/145/167 1/7/7 104/149/162
f 108/147/158 4/3/3 109/141/154
f 113/1/165 10/14/22 11/2/2
f 112/4/15 8/15/16 9/5/5
f 1/7/7 6/16/17 7/8/8
f 113/1/1 3/6/168 9/5/5
f 112/4/4 2/9/169 7/8/8
f 111/10/10 5/12/12 6/16/170
f 9/5/5 16/24/26 17/21/21
f 7/8/171 14/25/27 15/22/29
f 5/12/12 12/18/172 13/23/24
f 10/14/14 17/21/21 18/20/25
f 8/15/16 15/22/23 16/24/26
f 6/16/17 13/23/24 14/25/27
f 16/24/173 23/32/36 24/26/28
f 15/22/23 14/25/27 21/27/30
f 13/23/24 12/18/172 19/29/32
f 18/20/25 17/21/21 24/26/45
f 15/22/29 22/28/40 23/32/36
f 13/23/24 20/30/47 21/27/30
f 25/31/35 24/26/34 31/35/38
f 22/28/40 29/42/46 30/37/41
f 20/30/33 27/43/56 28/38/43
f 23/32/174 30/37/41 31/35/38
f 21/27/175 28/38/43 29/42/46
f 20/30/33 19/29/32 26/40/44
f 29/42/46 36/52/55 37/44/59
f 28/38/43 27/43/48 34/45/50
f 30/37/176 37/44/49 38/51/54
f 28/38/43 35/46/61 36/52/55
f 27/43/56 26/40/44 33/48/52
f 31/35/38 38/51/54 39/50/53
f 37/44/177 44/59/66 45/55/60
f 35/46/61 42/60/67 43/56/68
f 34/45/50 33/48/52 40/57/63
f 38/51/54 45/55/60 46/54/65
f 36/52/55 43/56/62 44/59/66
f 34/45/50 41/58/71 42/60/67
f 43/56/62 42/60/67 49/62/69
f 41/58/64 40/57/63 47/64/72
f 46/54/65 45/55/60 52/66/84
f 43/56/68 50/63/70 51/68/76
f 41/58/64 48/65/86 49/62/69
f 44/59/178 51/68/76 52/66/77
f 53/67/75 52/66/74 59/71/93
f 50/63/70 57/78/85 58/73/80
f 48/65/73 55/79/95 56/74/89
f 51/68/179 58/73/80 59/71/78
f 49/62/180 56/74/89 57/78/85
f 48/65/73 47/64/72 54/76/83
f 55/79/87 62/87/97 63/80/88
f 58/73/181 65/88/182 66/85/92
f 56/74/89 63/80/88 64/86/94
f 55/79/87 54/76/83 61/82/96
f 60/72/79 59/71/78 66/85/92
f 57/78/85 64/86/94 65/88/98
f 66/85/92 65/88/182 72/91/101
f 64/86/94 63/80/88 70/93/103
f 61/82/105 68/97/183 69/95/106
f 66/85/92 73/92/119 74/90/100
f 64/86/94 71/94/113 72/91/107
f 62/87/184 69/95/106 70/93/103
f 69/95/106 68/97/183 75/98/110
f 73/92/102 80/105/118 81/100/112
f 71/94/113 78/106/120 79/101/114
f 70/93/103 69/95/106 76/99/111
f 72/91/107 79/101/185 80/105/118
f 70/93/103 77/102/130 78/106/120
f 81/100/121 80/105/118 87/107/122
f 78/106/120 85/114/131 86/109/129
f 76/99/111 83/115/139 84/110/125
f 80/105/118 79/101/186 86/109/129
f 77/102/130 84/110/125 85/114/131
f 76/99/111 75/98/110 82/112/126
f 87/122/122 86/130/129 93/123/135
f 85/125/131 84/131/141 91/126/137
f 83/128/132 82/116/126 89/118/133
f 87/122/122 94/124/143 95/121/134
f 85/125/131 92/127/138 93/123/135
f 83/128/132 90/129/146 91/126/137
f 93/123/135 100/138/150 101/132/153
f 92/127/138 91/126/137 98/133/144
f 90/129/140 89/118/133 96/135/147
f 94/124/136 101/132/153 102/137/149
f 92/127/138 99/134/145 100/138/150
f 90/129/151 97/136/160 98/133/152
f 101/132/153 108/147/158 109/141/154
f 99/134/145 106/148/187 107/142/155
f 97/136/148 104/149/162 105/143/156
f 100/138/188 107/142/189 108/147/158
f 98/133/190 105/143/156 106/148/159
f 97/136/148 96/135/147 103/145/161
f 106/148/187 112/4/15 3/6/168
f 105/143/156 104/149/162 1/7/7
f 108/147/158 107/142/189 3/6/6
f 106/148/159 105/143/156 2/9/166
f 103/145/167 111/10/10 1/7/7
f 108/147/158 113/1/1 4/3/3
